REM DIRINDEX 1\2,1\3
REM DIRNAME cjc102,folder01,folder02
TITLE ""
FILE "CD1Track21.mp3" MP3
  TRACK 01 AUDIO
    TITLE "0:"
    INDEX 01 00:00:00
  TRACK 02 AUDIO
    TITLE "3:cjc102_0842"
    INDEX 01 00:00:25
  TRACK 03 AUDIO
    TITLE "0:"
    INDEX 01 00:01:17
  TRACK 04 AUDIO
    TITLE "2:cjc102_0843"
    INDEX 01 00:01:42
  TRACK 05 AUDIO
    TITLE "0:"
    INDEX 01 00:02:47
  TRACK 06 AUDIO
    TITLE "3:cjc102_0844"
    INDEX 01 00:03:14
  TRACK 07 AUDIO
    TITLE "0:"
    INDEX 01 00:03:74
  TRACK 08 AUDIO
    TITLE "2:cjc102_0845"
    INDEX 01 00:04:21
  TRACK 09 AUDIO
    TITLE "0:"
    INDEX 01 00:05:30
  TRACK 10 AUDIO
    TITLE "3:cjc102_0846"
    INDEX 01 00:05:65
  TRACK 11 AUDIO
    TITLE "0:"
    INDEX 01 00:06:63
  TRACK 12 AUDIO
    TITLE "2:cjc102_0847"
    INDEX 01 00:07:05
  TRACK 13 AUDIO
    TITLE "0:"
    INDEX 01 00:08:03
  TRACK 14 AUDIO
    TITLE "3:cjc102_0848"
    INDEX 01 00:08:46
  TRACK 15 AUDIO
    TITLE "0:"
    INDEX 01 00:09:40
  TRACK 16 AUDIO
    TITLE "2:cjc102_0849"
    INDEX 01 00:10:00
  TRACK 17 AUDIO
    TITLE "0:"
    INDEX 01 00:11:05
  TRACK 18 AUDIO
    TITLE "3:cjc102_0850"
    INDEX 01 00:11:11
  TRACK 19 AUDIO
    TITLE "0:"
    INDEX 01 00:11:72
  TRACK 20 AUDIO
    TITLE "2:cjc102_0851"
    INDEX 01 00:12:09
  TRACK 21 AUDIO
    TITLE "0:"
    INDEX 01 00:13:24
  TRACK 22 AUDIO
    TITLE "3:cjc102_0852"
    INDEX 01 00:13:63
  TRACK 23 AUDIO
    TITLE "0:"
    INDEX 01 00:14:60
  TRACK 24 AUDIO
    TITLE "2:cjc102_0853"
    INDEX 01 00:14:72
  TRACK 25 AUDIO
    TITLE "0:"
    INDEX 01 00:15:68
  TRACK 26 AUDIO
    TITLE "3:cjc102_0854"
    INDEX 01 00:16:44
  TRACK 27 AUDIO
    TITLE "0:"
    INDEX 01 00:17:37
  TRACK 28 AUDIO
    TITLE "2:cjc102_0855"
    INDEX 01 00:17:61
  TRACK 29 AUDIO
    TITLE "0:"
    INDEX 01 00:18:66
  TRACK 30 AUDIO
    TITLE "3:cjc102_0856"
    INDEX 01 00:19:32
  TRACK 31 AUDIO
    TITLE "0:"
    INDEX 01 00:20:30
  TRACK 32 AUDIO
    TITLE "2:cjc102_0857"
    INDEX 01 00:20:34
  TRACK 33 AUDIO
    TITLE "0:"
    INDEX 01 00:21:51
  TRACK 34 AUDIO
    TITLE "3:cjc102_0858"
    INDEX 01 00:22:17
  TRACK 35 AUDIO
    TITLE "0:"
    INDEX 01 00:23:08
  TRACK 36 AUDIO
    TITLE "2:cjc102_0859"
    INDEX 01 00:23:14
  TRACK 37 AUDIO
    TITLE "0:"
    INDEX 01 00:24:29
  TRACK 38 AUDIO
    TITLE "3:cjc102_0860"
    INDEX 01 00:24:65
  TRACK 39 AUDIO
    TITLE "0:"
    INDEX 01 00:25:62
  TRACK 40 AUDIO
    TITLE "2:cjc102_0861"
    INDEX 01 00:25:72
  TRACK 41 AUDIO
    TITLE "0:"
    INDEX 01 00:27:20
  TRACK 42 AUDIO
    TITLE "3:cjc102_0862"
    INDEX 01 00:27:53
  TRACK 43 AUDIO
    TITLE "0:"
    INDEX 01 00:28:74
  TRACK 44 AUDIO
    TITLE "2:cjc102_0863"
    INDEX 01 00:29:01
  TRACK 45 AUDIO
    TITLE "0:"
    INDEX 01 00:30:12
  TRACK 46 AUDIO
    TITLE "3:cjc102_0864"
    INDEX 01 00:30:36
  TRACK 47 AUDIO
    TITLE "0:"
    INDEX 01 00:31:45
  TRACK 48 AUDIO
    TITLE "2:cjc102_0865"
    INDEX 01 00:31:65
  TRACK 49 AUDIO
    TITLE "0:"
    INDEX 01 00:32:68
  TRACK 50 AUDIO
    TITLE "3:cjc102_0866"
    INDEX 01 00:33:34
  TRACK 51 AUDIO
    TITLE "0:"
    INDEX 01 00:34:47
  TRACK 52 AUDIO
    TITLE "2:cjc102_0867"
    INDEX 01 00:34:51
  TRACK 53 AUDIO
    TITLE "0:"
    INDEX 01 00:35:59
  TRACK 54 AUDIO
    TITLE "3:cjc102_0868"
    INDEX 01 00:36:23
  TRACK 55 AUDIO
    TITLE "0:"
    INDEX 01 00:37:38
  TRACK 56 AUDIO
    TITLE "2:cjc102_0869"
    INDEX 01 00:37:42
  TRACK 57 AUDIO
    TITLE "0:"
    INDEX 01 00:38:41
  TRACK 58 AUDIO
    TITLE "3:cjc102_0870"
    INDEX 01 00:39:15
  TRACK 59 AUDIO
    TITLE "0:"
    INDEX 01 00:40:21
  TRACK 60 AUDIO
    TITLE "2:cjc102_0871"
    INDEX 01 00:40:38
  TRACK 61 AUDIO
    TITLE "0:"
    INDEX 01 00:41:32
  TRACK 62 AUDIO
    TITLE "3:cjc102_0872"
    INDEX 01 00:42:00
  TRACK 63 AUDIO
    TITLE "0:"
    INDEX 01 00:43:07
  TRACK 64 AUDIO
    TITLE "2:cjc102_0873"
    INDEX 01 00:43:23
  TRACK 65 AUDIO
    TITLE "0:"
    INDEX 01 00:44:26
  TRACK 66 AUDIO
    TITLE "3:cjc102_0874"
    INDEX 01 00:44:73
  TRACK 67 AUDIO
    TITLE "0:"
    INDEX 01 00:46:15
  TRACK 68 AUDIO
    TITLE "2:cjc102_0875"
    INDEX 01 00:46:25
  TRACK 69 AUDIO
    TITLE "0:"
    INDEX 01 00:47:23
  TRACK 70 AUDIO
    TITLE "3:cjc102_0876"
    INDEX 01 00:48:06
  TRACK 71 AUDIO
    TITLE "0:"
    INDEX 01 00:49:25
  TRACK 72 AUDIO
    TITLE "2:cjc102_0877"
    INDEX 01 00:49:27
  TRACK 73 AUDIO
    TITLE "0:"
    INDEX 01 00:50:27
  TRACK 74 AUDIO
    TITLE "3:cjc102_0878"
    INDEX 01 00:51:03
  TRACK 75 AUDIO
    TITLE "0:"
    INDEX 01 00:52:20
  TRACK 76 AUDIO
    TITLE "2:cjc102_0879"
    INDEX 01 00:52:28
  TRACK 77 AUDIO
    TITLE "0:"
    INDEX 01 00:53:33
  TRACK 78 AUDIO
    TITLE "3:cjc102_0880"
    INDEX 01 00:53:60
  TRACK 79 AUDIO
    TITLE "0:"
    INDEX 01 00:54:66
  TRACK 80 AUDIO
    TITLE "2:cjc102_0881"
    INDEX 01 00:55:03
  TRACK 81 AUDIO
    TITLE "0:"
    INDEX 01 00:56:16
  TRACK 82 AUDIO
    TITLE "3:cjc102_0882"
    INDEX 01 00:56:67
  TRACK 83 AUDIO
    TITLE "0:"
    INDEX 01 00:58:15
  TRACK 84 AUDIO
    TITLE "2:cjc102_0883"
    INDEX 01 00:58:17
  TRACK 85 AUDIO
    TITLE "0:"
    INDEX 01 00:59:41
  TRACK 86 AUDIO
    TITLE "3:cjc102_0884"
    INDEX 01 01:00:39
  TRACK 87 AUDIO
    TITLE "0:"
    INDEX 01 01:01:56
  TRACK 88 AUDIO
    TITLE "2:cjc102_0885"
    INDEX 01 01:01:74
  TRACK 89 AUDIO
    TITLE "0:"
    INDEX 01 01:03:02
  TRACK 90 AUDIO
    TITLE "3:cjc102_0886"
    INDEX 01 01:03:47
  TRACK 91 AUDIO
    TITLE "0:"
    INDEX 01 01:04:72
  TRACK 92 AUDIO
    TITLE "2:cjc102_0887"
    INDEX 01 01:05:03
  TRACK 93 AUDIO
    TITLE "0:"
    INDEX 01 01:06:12
  TRACK 94 AUDIO
    TITLE "3:cjc102_0888"
    INDEX 01 01:06:61
  TRACK 95 AUDIO
    TITLE "0:"
    INDEX 01 01:08:15
  TRACK 96 AUDIO
    TITLE "2:cjc102_0889"
    INDEX 01 01:08:17
  TRACK 97 AUDIO
    TITLE "0:"
    INDEX 01 01:09:28
  TRACK 98 AUDIO
    TITLE "3:cjc102_0890"
    INDEX 01 01:10:00
  TRACK 99 AUDIO
    TITLE "0:"
    INDEX 01 01:11:13
  TRACK 100 AUDIO
    TITLE "2:cjc102_0891"
    INDEX 01 01:11:29
  TRACK 101 AUDIO
    TITLE "0:"
    INDEX 01 01:12:44
  TRACK 102 AUDIO
    TITLE "3:cjc102_0892"
    INDEX 01 01:13:22
  TRACK 103 AUDIO
    TITLE "0:"
    INDEX 01 01:14:39
  TRACK 104 AUDIO
    TITLE "2:cjc102_0893"
    INDEX 01 01:14:51
  TRACK 105 AUDIO
    TITLE "0:"
    INDEX 01 01:15:64
  TRACK 106 AUDIO
    TITLE "3:cjc102_0894"
    INDEX 01 01:16:40
  TRACK 107 AUDIO
    TITLE "0:"
    INDEX 01 01:17:65
  TRACK 108 AUDIO
    TITLE "2:cjc102_0895"
    INDEX 01 01:17:69
  TRACK 109 AUDIO
    TITLE "0:"
    INDEX 01 01:19:05
  TRACK 110 AUDIO
    TITLE "3:cjc102_0896"
    INDEX 01 01:19:48
  TRACK 111 AUDIO
    TITLE "0:"
    INDEX 01 01:21:00
  TRACK 112 AUDIO
    TITLE "2:cjc102_0897"
    INDEX 01 01:21:02
  TRACK 113 AUDIO
    TITLE "0:"
    INDEX 01 01:22:27
  TRACK 114 AUDIO
    TITLE "3:cjc102_0898"
    INDEX 01 01:22:66
  TRACK 115 AUDIO
    TITLE "0:"
    INDEX 01 01:24:16
  TRACK 116 AUDIO
    TITLE "2:cjc102_0899"
    INDEX 01 01:24:20
  TRACK 117 AUDIO
    TITLE "0:"
    INDEX 01 01:25:35
  TRACK 118 AUDIO
    TITLE "3:cjc102_0900"
    INDEX 01 01:25:62
  TRACK 119 AUDIO
    TITLE "0:"
    INDEX 01 01:27:06
  TRACK 120 AUDIO
    TITLE "2:cjc102_0901"
    INDEX 01 01:27:08
  TRACK 121 AUDIO
    TITLE "0:"
    INDEX 01 01:28:14
  TRACK 122 AUDIO
    TITLE "3:cjc102_0902"
    INDEX 01 01:29:09
  TRACK 123 AUDIO
    TITLE "0:"
    INDEX 01 01:30:42
  TRACK 124 AUDIO
    TITLE "2:cjc102_0903"
    INDEX 01 01:30:64
  TRACK 125 AUDIO
    TITLE "0:"
    INDEX 01 01:32:06
  TRACK 126 AUDIO
    TITLE "2:cjc102_0904"
    INDEX 01 01:32:33
  TRACK 127 AUDIO
    TITLE "0:"
    INDEX 01 01:33:42
  TRACK 128 AUDIO
    TITLE "3:cjc102_0905"
    INDEX 01 01:34:14
  TRACK 129 AUDIO
    TITLE "0:"
    INDEX 01 01:35:39
  TRACK 130 AUDIO
    TITLE "2:cjc102_0906"
    INDEX 01 01:35:63
  TRACK 131 AUDIO
    TITLE "0:"
    INDEX 01 01:37:26
  TRACK 132 AUDIO
    TITLE "2:cjc102_0907"
    INDEX 01 01:37:36
  TRACK 133 AUDIO
    TITLE "0:"
    INDEX 01 01:38:51
  TRACK 134 AUDIO
    TITLE "3:cjc102_0908"
    INDEX 01 01:39:25
  TRACK 135 AUDIO
    TITLE "0:"
    INDEX 01 01:40:60
  TRACK 136 AUDIO
    TITLE "2:cjc102_0909"
    INDEX 01 01:40:72
  TRACK 137 AUDIO
    TITLE "0:"
    INDEX 01 01:42:06
  TRACK 138 AUDIO
    TITLE "2:cjc102_0910"
    INDEX 01 01:42:37
  TRACK 139 AUDIO
    TITLE "0:"
    INDEX 01 01:43:33
  TRACK 140 AUDIO
    TITLE "3:cjc102_0911"
    INDEX 01 01:44:23
  TRACK 141 AUDIO
    TITLE "0:"
    INDEX 01 01:45:55
  TRACK 142 AUDIO
    TITLE "2:cjc102_0912"
    INDEX 01 01:46:04
  TRACK 143 AUDIO
    TITLE "0:"
    INDEX 01 01:47:23
  TRACK 144 AUDIO
    TITLE "2:cjc102_0913"
    INDEX 01 01:47:44
  TRACK 145 AUDIO
    TITLE "0:"
    INDEX 01 01:48:50
  TRACK 146 AUDIO
    TITLE "3:cjc102_0914"
    INDEX 01 01:49:41
  TRACK 147 AUDIO
    TITLE "0:"
    INDEX 01 01:50:64
  TRACK 148 AUDIO
    TITLE "2:cjc102_0915"
    INDEX 01 01:51:23
  TRACK 149 AUDIO
    TITLE "0:"
    INDEX 01 01:52:26
  TRACK 150 AUDIO
    TITLE "2:cjc102_0916"
    INDEX 01 01:52:53
  TRACK 151 AUDIO
    TITLE "0:"
    INDEX 01 01:53:53
  TRACK 152 AUDIO
    TITLE "3:cjc102_0917"
    INDEX 01 01:54:56
  TRACK 153 AUDIO
    TITLE "0:"
    INDEX 01 01:56:20
  TRACK 154 AUDIO
    TITLE "2:cjc102_0918"
    INDEX 01 01:56:41
  TRACK 155 AUDIO
    TITLE "0:"
    INDEX 01 01:57:62
  TRACK 156 AUDIO
    TITLE "2:cjc102_0919"
    INDEX 01 01:58:23
  TRACK 157 AUDIO
    TITLE "0:"
    INDEX 01 01:59:36
